<?xml version="1.0" encoding="iso-8859-1"?>
<!-- Generator: Adobe Illustrator 19.0.0, SVG Export Plug-In . SVG Version: 6.00 Build 0)  -->
<svg xmlns="http://www.w3.org/2000/svg" xmlns:xlink="http://www.w3.org/1999/xlink" version="1.1" id="Capa_1" x="0px" y="0px" viewBox="0 0 512.003 512.003" style="enable-background:new 0 0 512.003 512.003;" xml:space="preserve" width="512px" height="512px">
<g>
	<g>
		<path d="M287.376,105.859c-10.321-1.141-20.877-1.72-31.374-1.72c-60.724,0-117.881,18.956-160.941,53.377    c-43.539,34.804-67.517,81.222-67.517,130.706c0,29.515,8.861,58.855,25.624,84.848c16.095,24.957,39.512,46.965,67.717,63.646    c1.164,0.688,2.441,1.016,3.702,1.016c2.49,0,4.918-1.279,6.278-3.578c2.048-3.464,0.901-7.932-2.563-9.981    c-54.773-32.391-86.186-81.943-86.186-135.95c0-93.468,95.948-169.511,213.885-169.511c9.964,0,19.981,0.549,29.773,1.631    c4.001,0.437,7.6-2.442,8.043-6.441C294.259,109.902,291.375,106.301,287.376,105.859z" fill="#e42f26"/>
	</g>
</g>
<g>
	<g>
		<path d="M417.473,157.942c-3.136-2.524-7.722-2.026-10.245,1.109s-2.026,7.722,1.109,10.244    c39.69,31.935,61.548,74.171,61.548,118.927v0.227c-0.006,3.73-1.579,7.14-4.428,9.6c-2.897,2.502-6.738,3.621-10.54,3.067    c-34.263-4.982-66.807-7.113-91.642-6.001c-32.18,1.442-48.625,7.909-51.755,20.352c-2.201,8.751,2.937,18.087,15.709,28.54    c9.762,7.99,23.911,16.642,42.054,25.716c12.071,6.037,19.267,17.722,19.251,31.259c-0.016,13.432-7.175,25.005-19.15,30.959    c-33.942,16.872-73.149,25.791-113.384,25.791c-12.659,0-25.343-0.884-37.699-2.628c-3.99-0.567-7.671,2.212-8.233,6.196    c-0.563,3.985,2.212,7.671,6.196,8.233c13.029,1.839,26.398,2.772,39.736,2.772c42.474,0,83.925-9.445,119.871-27.315    c16.777-8.34,27.214-25.196,27.236-43.99c0.023-18.896-10.44-35.875-27.305-44.31c-43.232-21.621-50.879-34.767-50.149-37.667    c0.54-2.147,8.469-8.014,38.275-9.349c23.939-1.073,55.51,1.009,88.892,5.864c7.987,1.16,16.064-1.193,22.162-6.459    c6.008-5.189,9.462-12.699,9.476-20.617v-0.24C484.459,238.966,460.67,192.698,417.473,157.942z" fill="#e42f26"/>
	</g>
</g>
<g>
	<g>
		<path d="M427.82,10.439c-0.025-0.167-0.049-0.327-0.073-0.487c-0.027-0.181-0.053-0.354-0.08-0.528    c-0.027-0.177-0.056-0.372-0.081-0.539c-0.206-1.344-0.673-2.599-1.34-3.731c-0.917-1.558-2.224-2.873-3.851-3.793    c-2.809-1.588-6.135-1.796-9.123-0.571c-0.344,0.141-0.71,0.292-1.085,0.447c-0.014,0.006-0.029,0.012-0.043,0.018    c-9.818,4.067-29.894,12.892-49.749,24.646c-0.099,0.058-0.197,0.116-0.296,0.175c-0.594,0.353-1.188,0.708-1.781,1.066    c-7.735,4.649-15.376,9.722-22.251,15.098c-0.169,0.132-0.323,0.279-0.478,0.424c-8.934,7.041-16.655,14.626-21.807,22.52    c-10.454,16.019-11.038,37.687-9.812,52.55c-4.937,0.317-9.626,3.029-12.238,7.646l-7.655,13.537    c-3.644,6.445-2.028,14.447,3.449,19.045c-12.126,15.238-37.008,48.01-61.694,89.617c-2.053,3.461-0.912,7.931,2.548,9.985    c3.463,2.054,7.931,0.912,9.985-2.548c25.174-42.429,50.52-75.459,61.84-89.578l41.53,23.485    c-9.397,25.441-40.175,102.98-88.72,169.445c-30.573,41.859-72.292,96.008-101.907,134.061c-3.424,4.4-7.679,6.086-10.84,4.3    c-3.161-1.788-3.908-6.304-1.902-11.505c17.348-44.994,42.249-108.656,62.361-156.425c4.716-11.202,10.096-22.79,15.99-34.44    c1.816-3.591,0.378-7.974-3.212-9.791c-3.59-1.817-7.974-0.378-9.791,3.212c-6.047,11.952-11.57,23.85-16.417,35.364    c-20.183,47.938-45.142,111.749-62.527,156.837c-5.406,14.022,0.287,24.886,8.327,29.433c2.891,1.635,6.324,2.589,9.967,2.589    c6.488,0,13.636-3.027,19.547-10.623c29.677-38.134,71.493-92.409,102.175-134.416c48.401-66.272,79.478-143.164,89.886-171.02    c1.582,0.547,3.232,0.828,4.897,0.828c1.36,0,2.728-0.185,4.073-0.558c3.898-1.082,7.142-3.618,9.133-7.139l7.655-13.537    c1.992-3.522,2.493-7.608,1.411-11.506c-0.285-1.026-0.676-2.003-1.154-2.928c13.367-6.61,31.626-18.276,39.963-35.487    c3.202-6.609,5.437-14.457,6.946-22.937c0.037-0.152,0.086-0.299,0.114-0.455c1.616-9.232,2.353-19.271,2.535-29.276    c0.003-0.175,0.007-0.351,0.01-0.526c0.009-0.53,0.017-1.059,0.023-1.588C432.567,46.062,429.529,21.912,427.82,10.439z     M369.745,168.365l-7.655,13.537c-0.029,0.051-0.117,0.207-0.346,0.27c-0.228,0.063-0.383-0.024-0.434-0.054l-62.33-35.247    c-0.276-0.156-0.372-0.507-0.217-0.781l7.655-13.536c0.105-0.186,0.3-0.291,0.5-0.291c0.096,0,0.193,0.024,0.281,0.074    l62.33,35.247c0.051,0.029,0.207,0.117,0.27,0.346C369.863,168.159,369.774,168.314,369.745,168.365z M409.535,119.264    c-7.988,16.489-29.592,27.379-39.732,31.733l-48.534-27.446c-1.493-10.932-3.295-35.06,6.718-50.402    c3.033-4.648,7.342-9.348,12.568-14.005c0.106,0.637,0.202,1.27,0.289,1.855c0.963,6.41,2.576,17.139,14.561,20.794    c9.067,2.765,15.619-1.417,19.532-3.918c0.591-0.378,1.318-0.842,1.899-1.171c0.436,0.489,1.097,1.351,1.971,2.824    c2.892,4.879,4.308,9.395,5.557,13.38c2.52,8.038,5.635,17.972,21.31,17.972c0.563,0,1.144-0.013,1.74-0.039    c1.783-0.078,3.616-0.245,5.486-0.485C411.941,113.605,410.827,116.597,409.535,119.264z M417.743,67.909    c0,0.7-0.003,1.401-0.009,2.102c-0.084,8.828-0.604,17.307-1.668,25.041c-3.268,0.69-6.38,1.103-9.292,1.232    c-1.727,0.075-4.769,0.058-5.712-0.913c-0.965-0.994-1.852-3.825-2.793-6.822c-1.413-4.506-3.171-10.114-6.925-16.449    c-2.162-3.648-5.684-8.652-11.284-9.985c-0.982-0.233-1.927-0.336-2.835-0.336c-4.158,0-7.539,2.16-10.133,3.817    c-3.48,2.224-5.021,2.995-7.436,2.259c-2.684-0.818-3.383-2.252-4.401-9.022c-0.432-2.871-0.946-6.29-2.327-9.481    c3.276-2.34,6.728-4.652,10.319-6.92c0.642-0.404,1.286-0.805,1.932-1.204c0.065-0.04,0.129-0.08,0.194-0.12    c18.396-11.333,38.009-20.276,48.569-24.796c1.513,10.946,3.776,30.722,3.802,51.111    C417.744,67.585,417.744,67.747,417.743,67.909z" fill="#e42f26"/>
	</g>
</g>
<g>
	<g>
		<path d="M197.401,140.221c-18.694,0-33.902,15.208-33.902,33.902c0,18.694,15.208,33.902,33.902,33.902    c18.694,0,33.902-15.208,33.902-33.902C231.303,155.429,216.095,140.221,197.401,140.221z M197.401,193.453    c-10.659,0-19.33-8.671-19.33-19.33s8.671-19.33,19.33-19.33s19.33,8.671,19.33,19.33S208.06,193.453,197.401,193.453z" fill="#e42f26"/>
	</g>
</g>
<g>
	<g>
		<path d="M126.738,198.647c-18.694,0-33.902,15.209-33.902,33.903c0,18.694,15.208,33.902,33.902,33.902    c18.694,0,33.902-15.208,33.902-33.902C160.64,213.856,145.432,198.647,126.738,198.647z M126.738,251.88    c-10.659,0-19.33-8.671-19.33-19.33s8.671-19.33,19.33-19.33s19.33,8.671,19.33,19.33    C146.067,243.209,137.396,251.88,126.738,251.88z" fill="#e42f26"/>
	</g>
</g>
<g>
	<g>
		<path d="M113.214,294.244c-18.694,0-33.903,15.208-33.903,33.902c0,18.694,15.209,33.902,33.903,33.902    c18.694,0,33.902-15.208,33.902-33.902C147.116,309.452,131.908,294.244,113.214,294.244z M113.213,347.476    c-10.659,0-19.33-8.671-19.33-19.33s8.671-19.33,19.33-19.33c10.659,0,19.33,8.672,19.33,19.33    C132.543,338.805,123.872,347.476,113.213,347.476z" fill="#e42f26"/>
	</g>
</g>
<g>
</g>
<g>
</g>
<g>
</g>
<g>
</g>
<g>
</g>
<g>
</g>
<g>
</g>
<g>
</g>
<g>
</g>
<g>
</g>
<g>
</g>
<g>
</g>
<g>
</g>
<g>
</g>
<g>
</g>
</svg>
